<svg width="600" height="300" viewBox="0 0 600 300" xmlns="http://www.w3.org/2000/svg">
  <rect width="600" height="300" rx="16" fill="#0A1628"/>
  <rect width="600" height="300" rx="16" fill="none" stroke="#1E3A6E" stroke-width="1"/>

  <!-- Hexagon ring -->
  <g transform="translate(130, 150)">
    <polygon points="0,-72 62,-36 62,36 0,72 -62,36 -62,-36"
      fill="none" stroke="#1E5EFF" stroke-width="2.5"/>
    <polygon points="0,-56 48.5,-28 48.5,28 0,56 -48.5,28 -48.5,-28"
      fill="none" stroke="#1E3A6E" stroke-width="1"/>
    <!-- Document -->
    <rect x="-22" y="-30" width="32" height="42" rx="3" fill="#0F2040" stroke="#1E5EFF" stroke-width="1.5"/>
    <line x1="-15" y1="-18" x2="3" y2="-18" stroke="#4F8EFF" stroke-width="1.5" stroke-linecap="round"/>
    <line x1="-15" y1="-10" x2="3" y2="-10" stroke="#4F8EFF" stroke-width="1.5" stroke-linecap="round"/>
    <line x1="-15" y1="-2" x2="-3" y2="-2" stroke="#4F8EFF" stroke-width="1.5" stroke-linecap="round"/>
    <!-- AI arrow circle -->
    <g transform="translate(10, 8)">
      <circle cx="0" cy="0" r="16" fill="#1E5EFF"/>
      <path d="M-6,6 L0,-7 L6,6" fill="none" stroke="#FFFFFF" stroke-width="2" stroke-linecap="round" stroke-linejoin="round"/>
      <line x1="0" y1="-7" x2="0" y2="6" stroke="#FFFFFF" stroke-width="2" stroke-linecap="round"/>
    </g>
    <!-- Corner dots -->
    <circle cx="0" cy="-72" r="3" fill="#00C6B3"/>
    <circle cx="62" cy="-36" r="3" fill="#00C6B3"/>
    <circle cx="62" cy="36" r="3" fill="#1E5EFF"/>
    <circle cx="0" cy="72" r="3" fill="#1E5EFF"/>
    <circle cx="-62" cy="36" r="3" fill="#1E5EFF"/>
    <circle cx="-62" cy="-36" r="3" fill="#00C6B3"/>
  </g>

  <!-- Wordmark -->
  <text x="228" y="128" font-family="system-ui, sans-serif" font-weight="700" font-size="44" fill="#FFFFFF">Tender</text>
  <text x="228" y="176" font-family="system-ui, sans-serif" font-weight="700" font-size="44" fill="#1E5EFF">Copilot</text>
  <rect x="228" y="184" width="52" height="3" rx="1.5" fill="#00C6B3"/>
  <text x="228" y="212" font-family="system-ui, sans-serif" font-size="13" fill="#4F8EFF" letter-spacing="2">AI TENDER INTELLIGENCE FOR MSME</text>
  <text x="228" y="236" font-family="system-ui, sans-serif" font-size="13" fill="#1E3A6E" letter-spacing="2">டெண்டர் கோபைலட்</text>
  <text x="228" y="272" font-family="system-ui, sans-serif" font-weight="400" font-size="10" fill="#7B9CC8" letter-spacing="3">PYNEVERA TECHNOLOGIES</text>
</svg>
